<svg class="svgOrigin" xmlns="http://www.w3.org/2000/svg" width="600" height="400" x="0px" y="0px" viewBox="0 0 600 400" enable-background="new 0 0 600 400">
<g>
	<rect x="0.000977" y="246.154297" fill="#E70029" width="599.999023" height="30.769499"/>
	<rect x="0.000977" y="276.923798" fill="#FFFFFF" width="599.999023" height="30.767597"/>
	<rect x="0.000977" y="215.382797" fill="#FFFFFF" width="599.999023" height="30.7715"/>
	<rect x="0.000977" y="307.691406" fill="#E70029" width="599.999023" height="30.769501"/>
	<rect x="0.000977" y="369.230499" fill="#E70029" width="599.999023" height="30.769501"/>
	<rect x="0.000977" y="338.460907" fill="#FFFFFF" width="599.999023" height="30.7696"/>
	<rect x="0.000977" y="153.846207" fill="#FFFFFF" width="599.999023" height="30.769499"/>
	<rect x="0.000977" y="30.76951" fill="#FFFFFF" width="599.999023" height="30.768599"/>
	<rect x="0.000977" fill="#E70029" width="599.999023" height="30.76951"/>
	<rect x="0.000977" y="61.538109" fill="#E70029" width="599.999023" height="30.770498"/>
	<rect x="0.000977" y="92.308609" fill="#FFFFFF" width="599.999023" height="30.768099"/>
	<rect x="0.000977" y="184.615707" fill="#E70029" width="599.999023" height="30.767099"/>
	<rect x="0.000977" y="123.076706" fill="#E70029" width="599.999023" height="30.769499"/>
	<rect x="0.000977" fill="#003366" width="268.776825" height="215.382797"/>
	<polygon fill="#FFFFFF" points="22.186501,52.610409 24.9541,61.127907 33.9072,61.127907 26.665001,66.391609 29.4307,74.908211 
		22.186501,69.644508 14.9424,74.908211 17.708,66.391609 10.4639,61.127907 19.4189,61.127907 	"/>
	<polygon fill="#FFFFFF" points="67.3545,52.610409 70.122101,61.127907 79.079102,61.127907 71.833,66.391609 74.598602,74.908211 
		67.3545,69.644508 60.110401,74.908211 62.877899,66.391609 55.633801,61.127907 64.586899,61.127907 	"/>
	<polygon fill="#FFFFFF" points="112.523895,52.610409 115.291496,61.127907 124.246597,61.127907 117.000496,66.391609 
		119.768097,74.908211 112.523895,69.644508 105.277794,74.908211 108.047394,66.391609 100.801796,61.127907 109.756294,61.127907 
			"/>
	<polygon fill="#FFFFFF" points="157.691895,52.610409 160.461395,61.127907 169.414597,61.127907 162.172394,66.391609 
		164.938004,74.908211 157.691895,69.644508 150.449692,74.908211 153.215302,66.391609 145.971191,61.127907 154.9263,61.127907 	
		"/>
	<polygon fill="#FFFFFF" points="202.861801,52.610409 205.629395,61.127907 214.584488,61.127907 207.340302,66.391609 
		210.106003,74.908211 202.861801,69.644508 195.617691,74.908211 198.383301,66.391609 191.139191,61.127907 200.094193,61.127907 
			"/>
	<polygon fill="#FFFFFF" points="248.033691,52.610409 250.799301,61.127907 259.756287,61.127907 252.5103,66.391609 
		255.275894,74.908211 248.033691,69.644508 240.787598,74.908211 243.555191,66.391609 236.311005,61.127907 245.264191,61.127907 
			"/>
	<polygon fill="#FFFFFF" points="248.033691,8.947309 250.799301,17.464809 259.756287,17.464809 252.5103,22.72851 
		255.275894,31.24511 248.033691,25.981409 240.787598,31.24511 243.555191,22.72851 236.311005,17.464809 245.264191,17.464809 	
		"/>
	<polygon fill="#FFFFFF" points="22.186501,8.947309 24.9541,17.464809 33.9072,17.464809 26.665001,22.72851 29.4307,31.24511 
		22.186501,25.981409 14.9424,31.24511 17.708,22.72851 10.4639,17.464809 19.4189,17.464809 	"/>
	<polygon fill="#FFFFFF" points="67.3545,8.947309 70.122101,17.464809 79.079102,17.464809 71.833,22.72851 74.598602,31.24511 
		67.3545,25.981409 60.110401,31.24511 62.877899,22.72851 55.633801,17.464809 64.586899,17.464809 	"/>
	<polygon fill="#FFFFFF" points="112.523895,8.947309 115.291496,17.464809 124.246597,17.464809 117.000496,22.72851 
		119.768097,31.24511 112.523895,25.981409 105.277794,31.24511 108.047394,22.72851 100.801796,17.464809 109.756294,17.464809 	
		"/>
	<polygon fill="#FFFFFF" points="157.691895,8.947309 160.461395,17.464809 169.414597,17.464809 162.172394,22.72851 
		164.938004,31.24511 157.691895,25.981409 150.449692,31.24511 153.215302,22.72851 145.971191,17.464809 154.9263,17.464809 	"/>
	<polygon fill="#FFFFFF" points="202.861801,8.947309 205.629395,17.464809 214.584488,17.464809 207.340302,22.72851 
		210.106003,31.24511 202.861801,25.981409 195.617691,31.24511 198.383301,22.72851 191.139191,17.464809 200.094193,17.464809 	
		"/>
	<polygon fill="#FFFFFF" points="44.7705,31.24511 47.540001,39.762711 56.493198,39.762711 49.249001,45.026409 
		52.016602,53.542999 44.7705,48.279308 37.528301,53.542999 40.2939,45.026409 33.047901,39.762711 42.004902,39.762711 	"/>
	<polygon fill="#FFFFFF" points="89.940399,31.24511 92.708,39.762711 101.663101,39.762711 94.4189,45.026409 97.184601,53.542999 
		89.940399,48.279308 82.696297,53.542999 85.461899,45.026409 78.219704,39.762711 87.172897,39.762711 	"/>
	<polygon fill="#FFFFFF" points="135.109894,31.24511 137.875504,39.762711 146.832489,39.762711 139.586395,45.026409 
		142.354004,53.542999 135.109894,48.279308 127.8638,53.542999 130.631302,45.026409 123.387199,39.762711 132.340302,39.762711 	
		"/>
	<polygon fill="#FFFFFF" points="180.277802,31.24511 183.047394,39.762711 192.000488,39.762711 184.756302,45.026409 
		187.523895,53.542999 180.277802,48.279308 173.033691,53.542999 175.8013,45.026409 168.555191,39.762711 177.512192,39.762711 	
		"/>
	<polygon fill="#FFFFFF" points="225.4478,31.24511 228.213394,39.762711 237.166489,39.762711 229.924301,45.026409 
		232.689896,53.542999 225.4478,48.279308 218.201691,53.542999 220.969193,45.026409 213.723099,39.762711 222.678192,39.762711 	
		"/>
	<polygon fill="#FFFFFF" points="44.7705,74.165001 47.540001,82.68161 56.493198,82.68161 49.249001,87.946304 
		52.016602,96.462906 44.7705,91.199211 37.528301,96.462906 40.2939,87.946304 33.047901,82.68161 42.004902,82.68161 	"/>
	<polygon fill="#FFFFFF" points="89.940399,74.165001 92.708,82.68161 101.663101,82.68161 94.4189,87.946304 97.184601,96.462906 
		89.940399,91.199211 82.696297,96.462906 85.461899,87.946304 78.219704,82.68161 87.172897,82.68161 	"/>
	<polygon fill="#FFFFFF" points="135.109894,74.165001 137.875504,82.68161 146.832489,82.68161 139.586395,87.946304 
		142.354004,96.462906 135.109894,91.199211 127.8638,96.462906 130.631302,87.946304 123.387199,82.68161 132.340302,82.68161 	"/>
	<polygon fill="#FFFFFF" points="180.277802,74.165001 183.047394,82.68161 192.000488,82.68161 184.756302,87.946304 
		187.523895,96.462906 180.277802,91.199211 173.033691,96.462906 175.8013,87.946304 168.555191,82.68161 177.512192,82.68161 	"/>
	<polygon fill="#FFFFFF" points="225.4478,74.165001 228.213394,82.68161 237.166489,82.68161 229.924301,87.946304 
		232.689896,96.462906 225.4478,91.199211 218.201691,96.462906 220.969193,87.946304 213.723099,82.68161 222.678192,82.68161 	"/>
	<polygon fill="#FFFFFF" points="44.7705,117.083504 47.540001,125.600105 56.493198,125.600105 49.249001,130.865707 
		52.016602,139.381302 44.7705,134.117706 37.528301,139.381302 40.2939,130.865707 33.047901,125.600105 42.004902,125.600105 	"/>
	<polygon fill="#FFFFFF" points="89.940399,117.083504 92.708,125.600105 101.663101,125.600105 94.4189,130.865707 
		97.184601,139.381302 89.940399,134.117706 82.696297,139.381302 85.461899,130.865707 78.219704,125.600105 87.172897,125.600105 
			"/>
	<polygon fill="#FFFFFF" points="135.109894,117.083504 137.875504,125.600105 146.832489,125.600105 139.586395,130.865707 
		142.354004,139.381302 135.109894,134.117706 127.8638,139.381302 130.631302,130.865707 123.387199,125.600105 
		132.340302,125.600105 	"/>
	<polygon fill="#FFFFFF" points="180.277802,117.083504 183.047394,125.600105 192.000488,125.600105 184.756302,130.865707 
		187.523895,139.381302 180.277802,134.117706 173.033691,139.381302 175.8013,130.865707 168.555191,125.600105 
		177.512192,125.600105 	"/>
	<polygon fill="#FFFFFF" points="225.4478,117.083504 228.213394,125.600105 237.166489,125.600105 229.924301,130.865707 
		232.689896,139.381302 225.4478,134.117706 218.201691,139.381302 220.969193,130.865707 213.723099,125.600105 
		222.678192,125.600105 	"/>
	<polygon fill="#FFFFFF" points="44.7705,160.000504 47.540001,168.516113 56.493198,168.516113 49.249001,173.781708 
		52.016602,182.297409 44.7705,177.033707 37.528301,182.297409 40.2939,173.781708 33.047901,168.516113 42.004902,168.516113 	"/>
	<polygon fill="#FFFFFF" points="89.940399,160.000504 92.708,168.516113 101.663101,168.516113 94.4189,173.781708 
		97.184601,182.297409 89.940399,177.033707 82.696297,182.297409 85.461899,173.781708 78.219704,168.516113 87.172897,168.516113 
			"/>
	<polygon fill="#FFFFFF" points="135.109894,160.000504 137.875504,168.516113 146.832489,168.516113 139.586395,173.781708 
		142.354004,182.297409 135.109894,177.033707 127.8638,182.297409 130.631302,173.781708 123.387199,168.516113 
		132.340302,168.516113 	"/>
	<polygon fill="#FFFFFF" points="180.277802,160.000504 183.047394,168.516113 192.000488,168.516113 184.756302,173.781708 
		187.523895,182.297409 180.277802,177.033707 173.033691,182.297409 175.8013,173.781708 168.555191,168.516113 
		177.512192,168.516113 	"/>
	<polygon fill="#FFFFFF" points="225.4478,160.000504 228.213394,168.516113 237.166489,168.516113 229.924301,173.781708 
		232.689896,182.297409 225.4478,177.033707 218.201691,182.297409 220.969193,173.781708 213.723099,168.516113 
		222.678192,168.516113 	"/>
	<polygon fill="#FFFFFF" points="22.186501,96.273407 24.9541,104.790504 33.9072,104.790504 26.665001,110.054207 
		29.4307,118.570808 22.186501,113.307106 14.9424,118.570808 17.708,110.054207 10.4639,104.790504 19.4189,104.790504 	"/>
	<polygon fill="#FFFFFF" points="67.3545,96.273407 70.122101,104.790504 79.079102,104.790504 71.833,110.054207 
		74.598602,118.570808 67.3545,113.307106 60.110401,118.570808 62.877899,110.054207 55.633801,104.790504 64.586899,104.790504 	
		"/>
	<polygon fill="#FFFFFF" points="112.523895,96.273407 115.291496,104.790504 124.246597,104.790504 117.000496,110.054207 
		119.768097,118.570808 112.523895,113.307106 105.277794,118.570808 108.047394,110.054207 100.801796,104.790504 
		109.756294,104.790504 	"/>
	<polygon fill="#FFFFFF" points="157.691895,96.273407 160.461395,104.790504 169.414597,104.790504 162.172394,110.054207 
		164.938004,118.570808 157.691895,113.307106 150.449692,118.570808 153.215302,110.054207 145.971191,104.790504 
		154.9263,104.790504 	"/>
	<polygon fill="#FFFFFF" points="202.861801,96.273407 205.629395,104.790504 214.584488,104.790504 207.340302,110.054207 
		210.106003,118.570808 202.861801,113.307106 195.617691,118.570808 198.383301,110.054207 191.139191,104.790504 
		200.094193,104.790504 	"/>
	<polygon fill="#FFFFFF" points="248.033691,96.273407 250.799301,104.790504 259.756287,104.790504 252.5103,110.054207 
		255.275894,118.570808 248.033691,113.307106 240.787598,118.570808 243.555191,110.054207 236.311005,104.790504 
		245.264191,104.790504 	"/>
	<polygon fill="#FFFFFF" points="22.186501,139.936005 24.9541,148.451706 33.9072,148.451706 26.665001,153.7173 
		29.4307,162.23291 22.186501,156.9673 14.9424,162.23291 17.708,153.7173 10.4639,148.451706 19.4189,148.451706 	"/>
	<polygon fill="#FFFFFF" points="67.3545,139.936005 70.122101,148.451706 79.079102,148.451706 71.833,153.7173 
		74.598602,162.23291 67.3545,156.9673 60.110401,162.23291 62.877899,153.7173 55.633801,148.451706 64.586899,148.451706 	"/>
	<polygon fill="#FFFFFF" points="112.523895,139.936005 115.291496,148.451706 124.246597,148.451706 117.000496,153.7173 
		119.768097,162.23291 112.523895,156.9673 105.277794,162.23291 108.047394,153.7173 100.801796,148.451706 109.756294,148.451706 
			"/>
	<polygon fill="#FFFFFF" points="157.691895,139.936005 160.461395,148.451706 169.414597,148.451706 162.172394,153.7173 
		164.938004,162.23291 157.691895,156.9673 150.449692,162.23291 153.215302,153.7173 145.971191,148.451706 154.9263,148.451706 	
		"/>
	<polygon fill="#FFFFFF" points="202.861801,139.936005 205.629395,148.451706 214.584488,148.451706 207.340302,153.7173 
		210.106003,162.23291 202.861801,156.9673 195.617691,162.23291 198.383301,153.7173 191.139191,148.451706 200.094193,148.451706 
			"/>
	<polygon fill="#FFFFFF" points="248.033691,139.936005 250.799301,148.451706 259.756287,148.451706 252.5103,153.7173 
		255.275894,162.23291 248.033691,156.9673 240.787598,162.23291 243.555191,153.7173 236.311005,148.451706 245.264191,148.451706 
			"/>
	<polygon fill="#FFFFFF" points="22.186501,183.598099 24.9541,192.1138 33.9072,192.1138 26.665001,197.37941 29.4307,205.894501 
		22.186501,200.62941 14.9424,205.894501 17.708,197.37941 10.4639,192.1138 19.4189,192.1138 	"/>
	<polygon fill="#FFFFFF" points="67.3545,183.598099 70.122101,192.1138 79.079102,192.1138 71.833,197.37941 74.598602,205.894501 
		67.3545,200.62941 60.110401,205.894501 62.877899,197.37941 55.633801,192.1138 64.586899,192.1138 	"/>
	<polygon fill="#FFFFFF" points="112.523895,183.598099 115.291496,192.1138 124.246597,192.1138 117.000496,197.37941 
		119.768097,205.894501 112.523895,200.62941 105.277794,205.894501 108.047394,197.37941 100.801796,192.1138 109.756294,192.1138 
			"/>
	<polygon fill="#FFFFFF" points="157.691895,183.598099 160.461395,192.1138 169.414597,192.1138 162.172394,197.37941 
		164.938004,205.894501 157.691895,200.62941 150.449692,205.894501 153.215302,197.37941 145.971191,192.1138 154.9263,192.1138 	
		"/>
	<polygon fill="#FFFFFF" points="202.861801,183.598099 205.629395,192.1138 214.584488,192.1138 207.340302,197.37941 
		210.106003,205.894501 202.861801,200.62941 195.617691,205.894501 198.383301,197.37941 191.139191,192.1138 200.094193,192.1138 
			"/>
	<polygon fill="#FFFFFF" points="248.033691,183.598099 250.799301,192.1138 259.756287,192.1138 252.5103,197.37941 
		255.275894,205.894501 248.033691,200.62941 240.787598,205.894501 243.555191,197.37941 236.311005,192.1138 245.264191,192.1138 
			"/>
</g>
</svg>
